<mxfile host="app.diagrams.net" modified="2020-10-28T02:53:03.071Z" agent="5.0 (Windows NT 10.0; Win64; x64) AppleWebKit/537.36 (KHTML, like Gecko) Chrome/86.0.4240.111 Safari/537.36" etag="ngjdphBnUX8wskx9h3Xy" version="13.8.5" type="github">
  <diagram id="jwMQUa_dvZPoF9yCegqJ" name="Página-1">
    <mxGraphModel dx="1422" dy="762" grid="0" gridSize="10" guides="1" tooltips="1" connect="1" arrows="1" fold="1" page="1" pageScale="1" pageWidth="827" pageHeight="1169" math="0" shadow="0">
      <root>
        <mxCell id="0" />
        <mxCell id="1" parent="0" />
        <mxCell id="EMdu-M0ajCJoOeXVAsX9-10" style="edgeStyle=orthogonalEdgeStyle;rounded=0;orthogonalLoop=1;jettySize=auto;html=1;exitX=1;exitY=0.75;exitDx=0;exitDy=0;entryX=0;entryY=0.25;entryDx=0;entryDy=0;" edge="1" parent="1" source="EMdu-M0ajCJoOeXVAsX9-1" target="EMdu-M0ajCJoOeXVAsX9-18">
          <mxGeometry relative="1" as="geometry">
            <mxPoint x="280" y="260" as="targetPoint" />
          </mxGeometry>
        </mxCell>
        <mxCell id="EMdu-M0ajCJoOeXVAsX9-1" value="Verificar información del estudiante" style="whiteSpace=wrap;html=1;align=center;shadow=1;" vertex="1" parent="1">
          <mxGeometry x="50" y="210" width="100" height="50" as="geometry" />
        </mxCell>
        <mxCell id="EMdu-M0ajCJoOeXVAsX9-15" style="edgeStyle=orthogonalEdgeStyle;rounded=0;orthogonalLoop=1;jettySize=auto;html=1;exitX=1;exitY=0.25;exitDx=0;exitDy=0;" edge="1" parent="1" source="EMdu-M0ajCJoOeXVAsX9-18" target="EMdu-M0ajCJoOeXVAsX9-14">
          <mxGeometry relative="1" as="geometry">
            <mxPoint x="440" y="240" as="sourcePoint" />
          </mxGeometry>
        </mxCell>
        <mxCell id="EMdu-M0ajCJoOeXVAsX9-7" value="" style="rounded=1;absoluteArcSize=1;html=1;arcSize=10;align=center;" vertex="1" parent="1">
          <mxGeometry x="295" y="250" width="170" height="50" as="geometry" />
        </mxCell>
        <mxCell id="EMdu-M0ajCJoOeXVAsX9-8" value="D1" style="html=1;shape=mxgraph.er.anchor;whiteSpace=wrap;strokeColor=#82b366;shadow=1;fillColor=#000033;" vertex="1" parent="EMdu-M0ajCJoOeXVAsX9-7">
          <mxGeometry width="40" height="50" as="geometry" />
        </mxCell>
        <mxCell id="EMdu-M0ajCJoOeXVAsX9-9" value="Registro del Estudiante" style="rounded=1;absoluteArcSize=1;html=1;arcSize=10;whiteSpace=wrap;points=[];strokeColor=inherit;fillColor=inherit;" vertex="1" parent="EMdu-M0ajCJoOeXVAsX9-7">
          <mxGeometry x="50" y="2.5" width="111.5" height="45" as="geometry" />
        </mxCell>
        <mxCell id="EMdu-M0ajCJoOeXVAsX9-14" value="Información&amp;nbsp;" style="whiteSpace=wrap;html=1;align=center;shadow=1;" vertex="1" parent="1">
          <mxGeometry x="590" y="210" width="100" height="50" as="geometry" />
        </mxCell>
        <mxCell id="EMdu-M0ajCJoOeXVAsX9-17" value="1" style="swimlane;childLayout=stackLayout;horizontal=1;startSize=30;horizontalStack=0;rounded=1;fontSize=14;fontStyle=0;strokeWidth=2;resizeParent=0;resizeLast=1;shadow=0;dashed=0;align=center;fillColor=#d5e8d4;strokeColor=#82b366;" vertex="1" parent="1">
          <mxGeometry x="300" y="70" width="160" height="120" as="geometry" />
        </mxCell>
        <mxCell id="EMdu-M0ajCJoOeXVAsX9-18" value="Registro del&#xa; estudiante" style="align=center;strokeColor=none;fillColor=none;spacingLeft=4;fontSize=12;verticalAlign=top;resizable=0;rotatable=0;part=1;" vertex="1" parent="EMdu-M0ajCJoOeXVAsX9-17">
          <mxGeometry y="30" width="160" height="90" as="geometry" />
        </mxCell>
        <mxCell id="EMdu-M0ajCJoOeXVAsX9-19" value="Documentos de Informacion" style="text;html=1;align=center;verticalAlign=middle;resizable=0;points=[];autosize=1;" vertex="1" parent="1">
          <mxGeometry x="60" y="140" width="170" height="20" as="geometry" />
        </mxCell>
        <mxCell id="EMdu-M0ajCJoOeXVAsX9-20" style="edgeStyle=orthogonalEdgeStyle;rounded=0;orthogonalLoop=1;jettySize=auto;html=1;exitX=0.25;exitY=1;exitDx=0;exitDy=0;" edge="1" parent="1" source="EMdu-M0ajCJoOeXVAsX9-18" target="EMdu-M0ajCJoOeXVAsX9-9">
          <mxGeometry relative="1" as="geometry" />
        </mxCell>
        <mxCell id="EMdu-M0ajCJoOeXVAsX9-21" value="Estudiante" style="text;html=1;align=center;verticalAlign=middle;resizable=0;points=[];autosize=1;" vertex="1" parent="1">
          <mxGeometry x="360" y="200" width="70" height="20" as="geometry" />
        </mxCell>
        <mxCell id="EMdu-M0ajCJoOeXVAsX9-22" value="Información Personal" style="text;html=1;align=center;verticalAlign=middle;resizable=0;points=[];autosize=1;" vertex="1" parent="1">
          <mxGeometry x="515" y="100" width="130" height="20" as="geometry" />
        </mxCell>
      </root>
    </mxGraphModel>
  </diagram>
</mxfile>
